<svg xmlns="http://www.w3.org/2000/svg" version="1.1" xmlns:xlink="http://www.w3.org/1999/xlink" xmlns:svgjs="http://svgjs.dev/svgjs" width="1500" height="1993" viewBox="0 0 1500 1993"><g transform="matrix(1,0,0,1,-1.240957616524497,0.6094801223242712)"><svg viewBox="0 0 246 327" data-background-color="#6b3245" preserveAspectRatio="xMidYMid meet" height="1993" width="1500" xmlns="http://www.w3.org/2000/svg" xmlns:xlink="http://www.w3.org/1999/xlink"><g id="tight-bounds" transform="matrix(1,0,0,1,0.2035170491100189,-0.10000000000002274)"><svg viewBox="0 0 245.59296590178 327.2" height="327.2" width="245.59296590178"><g><svg viewBox="0 0 395.52 526.9456457142857" height="327.2" width="245.59296590178"><g transform="matrix(1,0,0,1,0,265.3583441269841)"><svg viewBox="0 0 395.52 261.58730158730157" height="261.58730158730157" width="395.52"><g id="textblocktransform"><svg viewBox="0 0 395.52 261.58730158730157" height="261.58730158730157" width="395.52" id="textblock"><g><svg viewBox="0 0 395.52 261.58730158730157" height="261.58730158730157" width="395.52"><g transform="matrix(1,0,0,1,0,0)"><svg width="395.52" viewBox="-9 -31.25 47.25 31.25" height="261.58730158730157" data-palette-color="#fb6968"><path d="M38.25-31.25L36.8-23.25 29.9-23.25 25.85 0 16.35 0 20.4-23.25 13.55-23.25 15-31.25 38.25-31.25ZM15.2-2.4L14.8-0.15-6.4-2.4 15.2-2.4ZM16.9-12.05L16.5-9.8-4.7-12.05 16.9-12.05ZM17.75-16.85L17.35-14.6-3.85-16.85 17.75-16.85ZM18.6-21.65L18.2-19.4-3-21.65 18.6-21.65ZM16.05-7.25L15.65-5-5.55-7.25 16.05-7.25ZM12.55-26.45L12.2-24.2-9-26.45 12.55-26.45ZM13.4-31.25L13-29-8.15-31.25 13.4-31.25Z" opacity="1" transform="matrix(1,0,0,1,0,0)" fill="#fb6968" class="wordmark-text-0" data-fill-palette-color="primary" id="text-0"></path></svg></g></svg></g></svg></g></svg></g><g transform="matrix(1,0,0,1,75.54432,0)"><svg viewBox="0 0 244.43135999999998 244.43135999999998" height="244.43135999999998" width="244.43135999999998"><g><svg xmlns:x="http://ns.adobe.com/Extensibility/1.0/" xmlns:i="http://ns.adobe.com/AdobeIllustrator/10.0/" xmlns:graph="http://ns.adobe.com/Graphs/1.0/" xmlns="http://www.w3.org/2000/svg" xmlns:xlink="http://www.w3.org/1999/xlink" version="1.1" x="0" y="0" viewBox="5 5 54 54" enable-background="new 0 0 64 64" xml:space="preserve" height="244.43135999999998" width="244.43135999999998" class="icon-icon-0" data-fill-palette-color="accent" id="icon-0"><g fill="#fec3d9" data-fill-palette-color="accent"><path d="M32 5C17.112 5 5 17.112 5 32s12.112 27 27 27 27-12.112 27-27S46.888 5 32 5zM51.77 47.275c-2.293-1.221-5.075-2.225-8.159-2.948 0.822-3.401 1.31-7.233 1.378-11.327h11.986C56.763 38.362 54.854 43.294 51.77 47.275zM7.025 33h4.144c0.428 1.357 1.684 2.351 3.181 2.351 1.537 0 2.822-1.046 3.215-2.459C17.698 32.956 17.842 33 18 33h1.012c0.068 4.034 0.542 7.816 1.343 11.181-3.115 0.679-5.946 1.638-8.326 2.838C9.062 43.083 7.233 38.247 7.025 33zM12.076 16.921c2.31 1.303 5.112 2.353 8.226 3.115-0.77 3.31-1.224 7.016-1.29 10.964H18c-0.158 0-0.302 0.044-0.435 0.109-0.393-1.414-1.678-2.459-3.215-2.459-1.497 0-2.753 0.993-3.181 2.351H7.025C7.234 25.726 9.082 20.868 12.076 16.921zM32 25c0.551 0 1 0.449 1 1s-0.449 1-1 1-1-0.449-1-1S31.449 25 32 25zM33 28.816c1.161-0.415 2-1.514 2-2.816s-0.839-2.401-2-2.816v-1.732c3.021-0.016 5.976-0.278 8.766-0.749 0.72 3.132 1.155 6.626 1.223 10.297H33V28.816zM33 19.452V7.113c3.437 0.743 6.471 5.258 8.271 11.65C38.643 19.196 35.854 19.436 33 19.452zM31 7.113v12.303c-2.863-0.087-5.625-0.39-8.203-0.891C24.605 12.259 27.607 7.846 31 7.113zM31 21.432v1.752c-1.162 0.415-2 1.514-2 2.816s0.838 2.401 2 2.815V31h-9.988c0.069-3.76 0.523-7.335 1.275-10.526C25.028 21.015 27.967 21.343 31 21.432zM15.701 32c0 0.745-0.606 1.351-1.351 1.351S13 32.745 13 32s0.606-1.351 1.351-1.351S15.701 31.255 15.701 32zM21.012 33H31v10.018c-2.985 0.034-5.9 0.304-8.65 0.781C21.56 40.541 21.083 36.866 21.012 33zM31 45.017v11.87c-3.347-0.723-6.313-5.023-8.129-11.152C25.453 45.297 28.191 45.05 31 45.017zM33 56.887v-11.86c0.064 0.002 0.13 0.002 0.193 0.004C33.616 46.177 34.709 47 36 47c1.125 0 2.095-0.629 2.608-1.548 0.846 0.111 1.676 0.241 2.489 0.392C39.279 51.916 36.327 56.168 33 56.887zM36 45c-0.552 0-1-0.448-1-1s0.448-1 1-1 1 0.448 1 1S36.552 45 36 45zM38.947 43.481C38.7 42.074 37.477 41 36 41c-1.313 0-2.42 0.854-2.825 2.03-0.058-0.001-0.116-0.002-0.175-0.003V33h9.988c-0.071 3.91-0.56 7.623-1.365 10.908C40.748 43.742 39.855 43.602 38.947 43.481zM44.988 31c-0.064-3.829-0.493-7.432-1.222-10.666 3.201-0.68 6.104-1.659 8.542-2.887 2.766 3.849 4.467 8.51 4.666 13.552H44.988zM51.047 15.833c-2.235 1.081-4.864 1.953-7.767 2.563-1.282-4.651-3.211-8.394-5.552-10.727C43.007 8.913 47.645 11.83 51.047 15.833zM26.272 7.67c-2.29 2.282-4.186 5.909-5.468 10.419-2.8-0.683-5.322-1.606-7.424-2.749C16.739 11.59 21.211 8.861 26.272 7.67zM13.338 48.611c2.173-1.047 4.719-1.893 7.522-2.498 1.281 4.417 3.156 7.969 5.412 10.217C21.189 55.134 16.702 52.386 13.338 48.611zM37.729 56.33c2.23-2.223 4.088-5.723 5.367-10.071 2.77 0.646 5.274 1.522 7.361 2.585C47.117 52.5 42.707 55.158 37.729 56.33z" fill="#fec3d9" data-fill-palette-color="accent"></path></g></svg><g></g></g></svg></g><g></g></svg></g><defs></defs></svg><rect width="245.59296590178" height="327.2" fill="none" stroke="none" visibility="hidden"></rect></g></svg></g></svg>